<svg width="208" height="52" viewBox="0 0 208 52" fill="none" xmlns="http://www.w3.org/2000/svg">
<path d="M39 7H198C203.523 7 208 11.4772 208 17V35C208 40.5228 203.523 45 198 45H39V7Z" fill="black"/>
<path d="M77.276 21.382C77.576 21.382 77.834 21.49 78.05 21.706C78.278 21.91 78.392 22.168 78.392 22.48V32.902C78.392 33.214 78.29 33.478 78.086 33.694C77.882 33.898 77.612 34 77.276 34C76.94 34 76.664 33.898 76.448 33.694C76.244 33.49 76.142 33.226 76.142 32.902V25.648L73.172 30.184C73.052 30.328 72.914 30.448 72.758 30.544C72.602 30.628 72.44 30.664 72.272 30.652C72.116 30.664 71.96 30.628 71.804 30.544C71.648 30.448 71.51 30.328 71.39 30.184L68.42 25.486V32.902C68.42 33.226 68.324 33.49 68.132 33.694C67.94 33.898 67.688 34 67.376 34C67.076 34 66.83 33.898 66.638 33.694C66.446 33.478 66.35 33.214 66.35 32.902V22.48C66.35 22.18 66.458 21.922 66.674 21.706C66.902 21.49 67.172 21.382 67.484 21.382C67.664 21.382 67.844 21.43 68.024 21.526C68.204 21.61 68.342 21.724 68.438 21.868L72.362 27.898L76.394 21.868C76.49 21.724 76.616 21.61 76.772 21.526C76.94 21.43 77.108 21.382 77.276 21.382ZM88.712 24.19C89.024 24.19 89.282 24.292 89.486 24.496C89.69 24.7 89.792 24.964 89.792 25.288V32.902C89.792 33.214 89.69 33.478 89.486 33.694C89.282 33.898 89.024 34 88.712 34C88.4 34 88.142 33.898 87.938 33.694C87.746 33.49 87.644 33.232 87.632 32.92C87.332 33.268 86.924 33.568 86.408 33.82C85.904 34.06 85.37 34.18 84.806 34.18C83.978 34.18 83.228 33.97 82.556 33.55C81.884 33.118 81.35 32.524 80.954 31.768C80.57 31.012 80.378 30.154 80.378 29.194C80.378 28.234 80.57 27.376 80.954 26.62C81.338 25.852 81.86 25.258 82.52 24.838C83.192 24.406 83.93 24.19 84.734 24.19C85.31 24.19 85.85 24.298 86.354 24.514C86.858 24.718 87.284 24.982 87.632 25.306V25.288C87.632 24.976 87.734 24.718 87.938 24.514C88.142 24.298 88.4 24.19 88.712 24.19ZM85.076 32.2C85.856 32.2 86.492 31.918 86.984 31.354C87.476 30.778 87.722 30.058 87.722 29.194C87.722 28.33 87.476 27.61 86.984 27.034C86.492 26.458 85.856 26.17 85.076 26.17C84.308 26.17 83.678 26.458 83.186 27.034C82.694 27.61 82.448 28.33 82.448 29.194C82.448 30.058 82.688 30.778 83.168 31.354C83.66 31.918 84.296 32.2 85.076 32.2ZM91.5749 32.506C91.4669 32.362 91.4129 32.182 91.4129 31.966C91.4129 31.654 91.5689 31.39 91.8809 31.174C92.0489 31.066 92.2229 31.012 92.4029 31.012C92.6549 31.012 92.8949 31.126 93.1229 31.354C93.4829 31.726 93.8549 32.002 94.2389 32.182C94.6349 32.362 95.1089 32.452 95.6609 32.452C96.5969 32.416 97.0649 32.062 97.0649 31.39C97.0649 31.042 96.9029 30.778 96.5789 30.598C96.2669 30.418 95.7749 30.238 95.1029 30.058C94.4069 29.866 93.8369 29.674 93.3929 29.482C92.9609 29.29 92.5829 29.002 92.2589 28.618C91.9469 28.222 91.7909 27.694 91.7909 27.034C91.7909 26.458 91.9529 25.96 92.2769 25.54C92.6129 25.108 93.0449 24.778 93.5729 24.55C94.1129 24.31 94.6829 24.19 95.2829 24.19C95.8949 24.19 96.5069 24.304 97.1189 24.532C97.7309 24.76 98.2109 25.096 98.5589 25.54C98.7149 25.732 98.7929 25.948 98.7929 26.188C98.7929 26.464 98.6789 26.692 98.4509 26.872C98.2829 27.004 98.0909 27.07 97.8749 27.07C97.6109 27.07 97.3949 26.986 97.2269 26.818C97.0109 26.554 96.7289 26.344 96.3809 26.188C96.0449 26.032 95.6609 25.954 95.2289 25.954C94.3169 25.954 93.8609 26.284 93.8609 26.944C93.8609 27.208 93.9449 27.424 94.1129 27.592C94.2809 27.748 94.4909 27.874 94.7429 27.97C95.0069 28.054 95.3729 28.162 95.8409 28.294C96.4889 28.474 97.0289 28.66 97.4609 28.852C97.8929 29.044 98.2589 29.338 98.5589 29.734C98.8589 30.13 99.0089 30.652 99.0089 31.3C99.0089 31.888 98.8349 32.404 98.4869 32.848C98.1389 33.28 97.6889 33.61 97.1369 33.838C96.5969 34.066 96.0389 34.18 95.4629 34.18C94.6709 34.18 93.9329 34.048 93.2489 33.784C92.5649 33.52 92.0069 33.094 91.5749 32.506ZM105.46 31.966C105.628 31.966 105.778 32.05 105.91 32.218C106.054 32.374 106.126 32.584 106.126 32.848C106.126 33.172 105.946 33.448 105.586 33.676C105.238 33.892 104.842 34 104.398 34C103.654 34 103.024 33.844 102.508 33.532C102.004 33.208 101.752 32.53 101.752 31.498V26.53H100.924C100.636 26.53 100.396 26.434 100.204 26.242C100.012 26.05 99.9165 25.81 99.9165 25.522C99.9165 25.246 100.012 25.018 100.204 24.838C100.396 24.646 100.636 24.55 100.924 24.55H101.752V23.398C101.752 23.086 101.854 22.828 102.058 22.624C102.274 22.408 102.538 22.3 102.85 22.3C103.15 22.3 103.402 22.408 103.606 22.624C103.81 22.828 103.912 23.086 103.912 23.398V24.55H105.19C105.478 24.55 105.718 24.646 105.91 24.838C106.102 25.03 106.198 25.27 106.198 25.558C106.198 25.834 106.102 26.068 105.91 26.26C105.718 26.44 105.478 26.53 105.19 26.53H103.912V31.408C103.912 31.66 103.978 31.846 104.11 31.966C104.242 32.074 104.422 32.128 104.65 32.128C104.746 32.128 104.878 32.104 105.046 32.056C105.19 31.996 105.328 31.966 105.46 31.966ZM113.24 24.19C114.428 24.19 115.25 24.556 115.706 25.288C116.162 26.008 116.39 27.01 116.39 28.294V32.902C116.39 33.214 116.288 33.478 116.084 33.694C115.88 33.898 115.622 34 115.31 34C114.998 34 114.74 33.898 114.536 33.694C114.332 33.478 114.23 33.214 114.23 32.902V28.294C114.23 27.634 114.098 27.118 113.834 26.746C113.582 26.362 113.132 26.17 112.484 26.17C111.812 26.17 111.284 26.374 110.9 26.782C110.528 27.178 110.342 27.682 110.342 28.294V32.902C110.342 33.214 110.24 33.478 110.036 33.694C109.832 33.898 109.574 34 109.262 34C108.95 34 108.692 33.898 108.488 33.694C108.284 33.478 108.182 33.214 108.182 32.902V21.778C108.182 21.466 108.284 21.208 108.488 21.004C108.692 20.788 108.95 20.68 109.262 20.68C109.574 20.68 109.832 20.788 110.036 21.004C110.24 21.208 110.342 21.466 110.342 21.778V25.756C110.666 25.324 111.074 24.958 111.566 24.658C112.07 24.346 112.628 24.19 113.24 24.19Z" fill="#FFE600"/>
<path d="M133.276 21.382C133.576 21.382 133.834 21.49 134.05 21.706C134.278 21.91 134.392 22.168 134.392 22.48V32.902C134.392 33.214 134.29 33.478 134.086 33.694C133.882 33.898 133.612 34 133.276 34C132.94 34 132.664 33.898 132.448 33.694C132.244 33.49 132.142 33.226 132.142 32.902V25.648L129.172 30.184C129.052 30.328 128.914 30.448 128.758 30.544C128.602 30.628 128.44 30.664 128.272 30.652C128.116 30.664 127.96 30.628 127.804 30.544C127.648 30.448 127.51 30.328 127.39 30.184L124.42 25.486V32.902C124.42 33.226 124.324 33.49 124.132 33.694C123.94 33.898 123.688 34 123.376 34C123.076 34 122.83 33.898 122.638 33.694C122.446 33.478 122.35 33.214 122.35 32.902V22.48C122.35 22.18 122.458 21.922 122.674 21.706C122.902 21.49 123.172 21.382 123.484 21.382C123.664 21.382 123.844 21.43 124.024 21.526C124.204 21.61 124.342 21.724 124.438 21.868L128.362 27.898L132.394 21.868C132.49 21.724 132.616 21.61 132.772 21.526C132.94 21.43 133.108 21.382 133.276 21.382ZM144.712 24.19C145.024 24.19 145.282 24.292 145.486 24.496C145.69 24.7 145.792 24.964 145.792 25.288V32.902C145.792 33.214 145.69 33.478 145.486 33.694C145.282 33.898 145.024 34 144.712 34C144.4 34 144.142 33.898 143.938 33.694C143.746 33.49 143.644 33.232 143.632 32.92C143.332 33.268 142.924 33.568 142.408 33.82C141.904 34.06 141.37 34.18 140.806 34.18C139.978 34.18 139.228 33.97 138.556 33.55C137.884 33.118 137.35 32.524 136.954 31.768C136.57 31.012 136.378 30.154 136.378 29.194C136.378 28.234 136.57 27.376 136.954 26.62C137.338 25.852 137.86 25.258 138.52 24.838C139.192 24.406 139.93 24.19 140.734 24.19C141.31 24.19 141.85 24.298 142.354 24.514C142.858 24.718 143.284 24.982 143.632 25.306V25.288C143.632 24.976 143.734 24.718 143.938 24.514C144.142 24.298 144.4 24.19 144.712 24.19ZM141.076 32.2C141.856 32.2 142.492 31.918 142.984 31.354C143.476 30.778 143.722 30.058 143.722 29.194C143.722 28.33 143.476 27.61 142.984 27.034C142.492 26.458 141.856 26.17 141.076 26.17C140.308 26.17 139.678 26.458 139.186 27.034C138.694 27.61 138.448 28.33 138.448 29.194C138.448 30.058 138.688 30.778 139.168 31.354C139.66 31.918 140.296 32.2 141.076 32.2ZM156.107 24.19C156.419 24.19 156.677 24.292 156.881 24.496C157.085 24.7 157.187 24.964 157.187 25.288V33.298C157.187 34.762 156.731 35.842 155.819 36.538C154.919 37.246 153.773 37.6 152.381 37.6C152.021 37.6 151.523 37.54 150.887 37.42C150.263 37.3 149.819 37.18 149.555 37.06C148.967 36.808 148.673 36.46 148.673 36.016C148.673 35.932 148.691 35.836 148.727 35.728C148.799 35.464 148.919 35.26 149.087 35.116C149.267 34.984 149.459 34.918 149.663 34.918C149.783 34.918 149.897 34.936 150.005 34.972C150.053 34.984 150.347 35.092 150.887 35.296C151.439 35.512 151.937 35.62 152.381 35.62C153.269 35.62 153.929 35.44 154.361 35.08C154.805 34.732 155.027 34.234 155.027 33.586V32.722C154.763 33.094 154.361 33.43 153.821 33.73C153.293 34.03 152.723 34.18 152.111 34.18C151.271 34.18 150.503 33.97 149.807 33.55C149.123 33.118 148.583 32.524 148.187 31.768C147.791 31.012 147.593 30.154 147.593 29.194C147.593 28.234 147.785 27.376 148.169 26.62C148.565 25.852 149.099 25.258 149.771 24.838C150.455 24.406 151.211 24.19 152.039 24.19C152.651 24.19 153.221 24.316 153.749 24.568C154.277 24.82 154.703 25.126 155.027 25.486V25.288C155.027 24.976 155.129 24.718 155.333 24.514C155.537 24.298 155.795 24.19 156.107 24.19ZM152.381 32.2C153.185 32.2 153.839 31.918 154.343 31.354C154.859 30.778 155.117 30.058 155.117 29.194C155.117 28.33 154.859 27.61 154.343 27.034C153.839 26.458 153.185 26.17 152.381 26.17C151.577 26.17 150.923 26.458 150.419 27.034C149.915 27.61 149.663 28.33 149.663 29.194C149.663 30.058 149.915 30.778 150.419 31.354C150.923 31.918 151.577 32.2 152.381 32.2ZM167.23 24.19C167.542 24.19 167.8 24.292 168.004 24.496C168.208 24.7 168.31 24.964 168.31 25.288V32.902C168.31 33.214 168.208 33.478 168.004 33.694C167.8 33.898 167.542 34 167.23 34C166.918 34 166.66 33.898 166.456 33.694C166.264 33.49 166.162 33.232 166.15 32.92C165.85 33.268 165.442 33.568 164.926 33.82C164.422 34.06 163.888 34.18 163.324 34.18C162.496 34.18 161.746 33.97 161.074 33.55C160.402 33.118 159.868 32.524 159.472 31.768C159.088 31.012 158.896 30.154 158.896 29.194C158.896 28.234 159.088 27.376 159.472 26.62C159.856 25.852 160.378 25.258 161.038 24.838C161.71 24.406 162.448 24.19 163.252 24.19C163.828 24.19 164.368 24.298 164.872 24.514C165.376 24.718 165.802 24.982 166.15 25.306V25.288C166.15 24.976 166.252 24.718 166.456 24.514C166.66 24.298 166.918 24.19 167.23 24.19ZM163.594 32.2C164.374 32.2 165.01 31.918 165.502 31.354C165.994 30.778 166.24 30.058 166.24 29.194C166.24 28.33 165.994 27.61 165.502 27.034C165.01 26.458 164.374 26.17 163.594 26.17C162.826 26.17 162.196 26.458 161.704 27.034C161.212 27.61 160.966 28.33 160.966 29.194C160.966 30.058 161.206 30.778 161.686 31.354C162.178 31.918 162.814 32.2 163.594 32.2ZM178.62 24.19C178.932 24.19 179.19 24.292 179.394 24.496C179.598 24.7 179.7 24.964 179.7 25.288V32.902C179.7 33.214 179.598 33.478 179.394 33.694C179.19 33.898 178.932 34 178.62 34C178.308 34 178.05 33.898 177.846 33.694C177.654 33.49 177.552 33.232 177.54 32.92C177.24 33.268 176.832 33.568 176.316 33.82C175.812 34.06 175.278 34.18 174.714 34.18C173.886 34.18 173.136 33.97 172.464 33.55C171.792 33.118 171.258 32.524 170.862 31.768C170.478 31.012 170.286 30.154 170.286 29.194C170.286 28.234 170.478 27.376 170.862 26.62C171.246 25.852 171.768 25.258 172.428 24.838C173.1 24.406 173.838 24.19 174.642 24.19C175.218 24.19 175.758 24.298 176.262 24.514C176.766 24.718 177.192 24.982 177.54 25.306V25.288C177.54 24.976 177.642 24.718 177.846 24.514C178.05 24.298 178.308 24.19 178.62 24.19ZM174.984 32.2C175.764 32.2 176.4 31.918 176.892 31.354C177.384 30.778 177.63 30.058 177.63 29.194C177.63 28.33 177.384 27.61 176.892 27.034C176.4 26.458 175.764 26.17 174.984 26.17C174.216 26.17 173.586 26.458 173.094 27.034C172.602 27.61 172.356 28.33 172.356 29.194C172.356 30.058 172.596 30.778 173.076 31.354C173.568 31.918 174.204 32.2 174.984 32.2Z" fill="white"/>
<circle cx="26" cy="26" r="26" fill="#FFA800"/>
<path d="M7.80339 20.1868C6.95045 18.2066 8.40257 16 10.5587 16H22.8119C24.1517 16 25.1126 17.2915 24.7276 18.5747L23.0863 24.0457C22.7325 25.2251 21.6939 26.0685 20.467 26.1728L12.1742 26.8779C11.3165 26.9508 10.5084 26.4668 10.1679 25.6763L7.80339 20.1868Z" fill="black"/>
<path d="M44.6966 20.1868C45.5496 18.2066 44.0974 16 41.9413 16H29.6881C28.3483 16 27.3874 17.2915 27.7724 18.5747L29.4137 24.0457C29.7675 25.2251 30.8061 26.0685 32.033 26.1728L40.3258 26.8779C41.1835 26.9508 41.9916 26.4668 42.3321 25.6763L44.6966 20.1868Z" fill="black"/>
<rect x="23" y="17" width="7" height="3" fill="black"/>
<path d="M17 35C24.8106 41.6473 29.1894 40.8482 37 35" stroke="black" stroke-linecap="round"/>
</svg>
